<svg width="22" height="20" viewBox="0 0 22 20" fill="none" xmlns="http://www.w3.org/2000/svg">
<path d="M1.42188 2.88477C1.02995 2.88477 0.692708 2.74349 0.410156 2.46094C0.136719 2.16927 0 1.82747 0 1.43555C0 1.04362 0.136719 0.70638 0.410156 0.423828C0.683594 0.141276 1.02083 0 1.42188 0H19.9609C20.362 0 20.6992 0.141276 20.9727 0.423828C21.2552 0.697266 21.3965 1.03451 21.3965 1.43555C21.3965 1.82747 21.2552 2.16927 20.9727 2.46094C20.6901 2.74349 20.3529 2.88477 19.9609 2.88477H1.42188ZM1.42188 11.375C1.02995 11.375 0.692708 11.2337 0.410156 10.9512C0.136719 10.6595 0 10.3223 0 9.93945C0 9.53841 0.136719 9.19661 0.410156 8.91406C0.683594 8.63151 1.02083 8.49023 1.42188 8.49023H19.9609C20.362 8.49023 20.6992 8.63151 20.9727 8.91406C21.2552 9.19661 21.3965 9.53841 21.3965 9.93945C21.3965 10.3314 21.2552 10.6686 20.9727 10.9512C20.6901 11.2337 20.3529 11.375 19.9609 11.375H1.42188ZM1.42188 19.8652C1.02995 19.8652 0.692708 19.724 0.410156 19.4414C0.136719 19.1497 0 18.8079 0 18.416C0 18.0241 0.136719 17.6868 0.410156 17.4043C0.683594 17.1217 1.02083 16.9805 1.42188 16.9805H19.9609C20.362 16.9805 20.6992 17.1217 20.9727 17.4043C21.2552 17.6777 21.3965 18.015 21.3965 18.416C21.3965 18.8171 21.2552 19.1589 20.9727 19.4414C20.6901 19.724 20.3529 19.8652 19.9609 19.8652H1.42188Z" fill="white"/>
</svg>
